<svg width="200" height="40" viewBox="0 0 600 143" xmlns="http://www.w3.org/2000/svg" xmlns:xlink="http://www.w3.org/1999/xlink"><title>gmail</title><defs><path d="M13.382 0C6.022 0 0 6.022 0 13.383v115.985c0 7.36 6.022 13.383 13.382 13.383H182.9c7.36 0 13.383-6.022 13.383-13.383V13.383C196.283 6.023 190.26 0 182.9 0H13.382z" id="a"/><path id="c" d="M0 0h178.528v137.309H0z"/><path id="d" d="M0 0h151.673v110.409H0z"/><linearGradient x1="27.719%" y1="-29.473%" x2="88.491%" y2="60.89%" id="f"><stop stop-color="#262626" stop-opacity=".2" offset="0%"/><stop stop-opacity=".02" offset="100%"/></linearGradient><path d="M13.382 0C6.022 0 0 6.022 0 13.383v115.985c0 7.36 6.022 13.383 13.382 13.383H182.9c7.36 0 13.383-6.022 13.383-13.383V13.383C196.283 6.023 190.26 0 182.9 0H13.382z" id="g"/><path id="i" d="M0 0h223.227v114.558H0z"/><path id="j" d="M0 0h196.283v14.498H0z"/><path id="l" d="M.601 0h15.012v14.498H.601z"/><path id="n" d="M0 0h15.012v14.498H0z"/><path id="p" d="M0 0h196.283v75.323H0z"/><path id="r" d="M0 0h169.517v1.115H0z"/><radialGradient cx="2.244%" cy="2.331%" fx="2.244%" fy="2.331%" r="118.105%" id="t"><stop stop-color="#FFF" stop-opacity=".1" offset="0%"/><stop stop-opacity="0" offset="100%"/></radialGradient></defs><g fill="none" fill-rule="evenodd"><g><mask id="b" fill="#fff"><use xlink:href="#a"/></mask><g mask="url(#b)"><path fill="#E7E7E7" d="M22.305 142.75h151.673V32.343H22.305z"/><path fill="#F1F1F1" d="M98.141 87.591l-75.836 55.161h151.673V32.342z"/><g transform="translate(22.305 32.342)"><mask id="e" fill="#fff"><use xlink:href="#d"/></mask><g opacity=".4" mask="url(#e)" fill="#FFF"><path d="M75.836 55.25L0 110.41h1.533l74.303-54.046 75.837-55.249V0z"/></g></g><path fill="#DD553F" d="M0 13.383V142.75h22.305V13.383z"/><path fill="#D24F36" d="M173.978 13.383V142.75h22.305V13.383z"/></g></g><path d="M3.921 22.845L123.828 142.75H182.9c7.36 0 13.383-6.022 13.383-13.383V13.383L3.92 22.845z" fill="url(#f)"/><g><mask id="h" fill="#fff"><use xlink:href="#g"/></mask><g mask="url(#h)"><path d="M182.9 0L98.14 57.991 13.383 0H0v13.383c0 4.587 2.307 8.634 5.824 11.045L98.14 87.59l92.318-63.162a13.369 13.369 0 0 0 5.824-11.045V0H182.9z" fill="#E45B46"/><g transform="translate(0 128.253)"><mask id="k" fill="#fff"><use xlink:href="#j"/></mask><g opacity=".2" mask="url(#k)" fill="#323232"><path d="M182.9 13.383H13.383C6.023 13.383 0 7.36 0 0v1.115c0 7.36 6.022 13.383 13.383 13.383H182.9c7.36 0 13.383-6.022 13.383-13.383V0c0 7.36-6.023 13.383-13.383 13.383"/></g></g><g transform="translate(180.67)"><mask id="m" fill="#fff"><use xlink:href="#l"/></mask><g opacity=".2" mask="url(#m)" fill="#FFF"><path d="M2.23 0L.601 1.115h1.63c7.36 0 13.382 6.023 13.382 13.383v-1.115C15.613 6.023 9.591 0 2.23 0"/></g></g><g><mask id="o" fill="#fff"><use xlink:href="#n"/></mask><g opacity=".2" mask="url(#o)" fill="#FFF"><path d="M13.383 0l1.63 1.115h-1.63C6.023 1.115 0 7.138 0 14.498v-1.115C0 6.023 6.022 0 13.383 0"/></g></g><g transform="translate(0 12.268)"><mask id="q" fill="#fff"><use xlink:href="#p"/></mask><g opacity=".25" mask="url(#q)" fill="#50342E"><path d="M190.459 11.045L98.14 74.207 5.825 11.045A13.368 13.368 0 0 1 0 0v1.115C0 5.701 2.307 9.75 5.825 12.161L98.14 75.322l92.318-63.161a13.368 13.368 0 0 0 5.825-11.046V0c0 4.586-2.308 8.634-5.825 11.045"/></g></g><path fill="#F4F4F4" d="M13.383 0L98.14 57.991 182.9 0z"/><g transform="translate(13.383)"><mask id="s" fill="#fff"><use xlink:href="#r"/></mask><g opacity=".02" mask="url(#s)" fill="#323232"><path d="M0 0l1.63 1.115h166.257L169.517 0z"/></g></g></g></g><path d="M13.382 0C6.022 0 0 6.022 0 13.383v115.985c0 7.36 6.022 13.383 13.382 13.383H182.9c7.36 0 13.383-6.022 13.383-13.383V13.383C196.283 6.023 190.26 0 182.9 0H13.382z" fill="url(#t)"/><g opacity=".54" fill="#000"><path d="M341.17 112.058c-9.279 9.709-21.699 15.133-37.545 15.133-29.266 0-53.106-22.984-53.106-53.391 0-30.407 23.84-53.391 53.106-53.391 14.847 0 28.98 6.281 36.974 15.704l-8.993 8.993c-6.424-7.709-16.703-12.134-27.981-12.134-20.7 0-39.686 15.703-39.686 40.828 0 25.126 18.986 40.829 39.686 40.829 15.275 0 23.126-5.996 28.552-11.421 4.425-4.424 7.851-11.991 8.565-20.7h-37.117V70.232h49.536c.43 2.427.715 4.711.715 7.709 0 10.85-2.998 24.411-12.706 34.118M366.147 54.956h12.563v9.707h.571c3.996-6.71 13.276-11.991 21.557-11.991 11.277 0 18.559 5.139 22.126 13.418 4.997-7.851 13.563-13.418 24.413-13.418 17.13 0 24.982 12.134 24.982 29.408v42.827h-13.133V84.078c0-14.56-5.567-19.415-15.56-19.415-10.708 0-17.847 10.85-17.847 21.556v38.688h-13.132V84.078c0-14.56-5.567-19.415-15.56-19.415-10.707 0-17.846 10.85-17.846 21.556v38.688h-13.134V54.956zM532.739 94.786s-5.568-4.569-16.703-4.569c-13.848 0-19.273 7.424-19.273 13.847 0 7.424 7.71 11.136 14.562 11.136 10.422 0 21.414-8.993 21.414-20.414m-49.68 8.993c0-15.846 14.275-24.412 30.693-24.412 9.421 0 16.274 2.713 18.987 4.284v-1.999c0-10.564-8.423-16.988-18.274-16.988-7.28 0-14.276 3.569-16.703 10.135l-11.99-5.139c2.426-6.425 10.848-16.988 28.408-16.988 17.131 0 31.12 10.279 31.12 29.98v42.255H532.74V115.2h-.571c-3.855 5.853-10.993 11.991-22.984 11.991-14.277 0-26.125-8.85-26.125-23.412M559.144 54.956h13.133v69.951h-13.133V54.956zm-2.712-24.126a9.26 9.26 0 0 1 9.279-9.28 9.26 9.26 0 0 1 9.28 9.28 9.26 9.26 0 0 1-9.28 9.279 9.26 9.26 0 0 1-9.279-9.28zM586.55 22.693h13.133v102.214H586.55z"/></g></g></svg>